<svg width="21" height="23" viewBox="0 0 21 23" fill="none" xmlns="http://www.w3.org/2000/svg">
<path d="M1.34375 22.375C1.1034 22.375 0.872889 22.2795 0.702935 22.1096C0.53298 21.9396 0.4375 21.7091 0.4375 21.4687V1.53125C0.437527 1.37377 0.47859 1.21901 0.556642 1.08224C0.634694 0.945461 0.74704 0.831384 0.882608 0.751251C1.01818 0.671118 1.17228 0.627694 1.32974 0.625261C1.48721 0.622827 1.64258 0.661468 1.78056 0.737373L19.9056 10.7061C20.0477 10.7844 20.1661 10.8993 20.2487 11.0389C20.3312 11.1786 20.3747 11.3378 20.3747 11.5C20.3747 11.6622 20.3312 11.8214 20.2487 11.9611C20.1661 12.1007 20.0477 12.2156 19.9056 12.2939L1.78056 22.2626C1.64676 22.3363 1.4965 22.375 1.34375 22.375Z" fill="#F6F6F6"/>
</svg>
